<svg viewBox="0 0 100 100" xmlns="http://www.w3.org/2000/svg"><path d="M77.5,61Q80,72,70,76.5Q60,81,48,87.5Q36,94,29.5,82Q23,70,31.5,60Q40,50,40.5,46.5Q41,43,40,29Q39,15,49,18.5Q59,22,70.5,24.5Q82,27,78.5,38.5Q75,50,77.5,61Z" stroke="none" fill="white"></path><path d="M77.5,61Q80,72,70,76.5Q60,81,48,87.5Q36,94,29.5,82Q23,70,31.5,60Q40,50,40.5,46.5Q41,43,40,29Q39,15,49,18.5Q59,22,70.5,24.5Q82,27,78.5,38.5Q75,50,77.5,61Z" transform="translate(-6.31 -3.46)" stroke="white" stroke-width="1" fill="none"></path></svg>