<!-- <svg viewBox="0 0 100 100" xmlns="http://www.w3.org/2000/svg"><path d="M77,63Q85,76,70.5,72Q56,68,50,68.5Q44,69,30.5,71.5Q17,74,23,62Q29,50,20.5,36Q12,22,26.5,22.5Q41,23,51.5,17.5Q62,12,63.5,25.5Q65,39,67,44.5Q69,50,77,63Z" stroke="none" fill="#4f46e5"></path><path d="M77,63Q85,76,70.5,72Q56,68,50,68.5Q44,69,30.5,71.5Q17,74,23,62Q29,50,20.5,36Q12,22,26.5,22.5Q41,23,51.5,17.5Q62,12,63.5,25.5Q65,39,67,44.5Q69,50,77,63Z" transform="translate(4.48 2.4)" stroke="#332e97" stroke-width="1" fill="none"></path></svg> -->
<!-- <svg viewBox="0 0 132 143" xmlns="http://www.w3.org/2000/svg"><path d="M35.3554 214.9604Q14.1422 231.931-5.6568 210.7178-25.4558 189.5046-50.9116 185.262-76.3676 181.0194-49.4974 159.8062-22.6274 138.593-38.1838 113.137-53.7402 87.6812-32.527 82.0244-11.3138 76.3676 8.4852 82.0244 28.2842 87.6812 54.4472 94.0452 80.6102 100.4092 58.6898 123.7436 36.7696 147.0782 46.669 172.534 56.5686 197.9898 35.3554 214.9604Z" transform="translate(-6.92 -2.73)" stroke="white" stroke-width="1" fill="none"></path></svg> -->

<svg xmlns="http://www.w3.org/2000/svg" viewBox="-63.2956 79.196 132 143.3">
	<path d="M35.3554 214.9604Q56.5686 197.9898 46.669 172.534q-9.8994-25.4558 12.0208-48.7904 21.9204-23.3344-4.2426-29.6984-26.163-6.364-45.962-12.0208t-41.0122 0-5.6568 31.1126q15.5564 25.456-11.3136 46.6692-26.8702 21.2132-1.4142 25.4558 25.4558 4.2426 45.2548 25.4558t41.0122 4.2426Z" fill="#000000" />
</svg>