<?xml version="1.0" encoding="utf-8" ?>
<svg xmlns="http://www.w3.org/2000/svg" xmlns:xlink="http://www.w3.org/1999/xlink" width="1920" height="1080">
	<path fill="#2D0000" d="M1097.64 40.1095C1133.75 39.687 1169.9 40.0106 1206.02 39.9842C1206.69 41.1228 1207.18 42.1452 1207.44 43.4502C1209.4 53.2404 1207.84 73.6931 1207.84 84.6659L1207.84 187.205L1207.81 579.205L1207.86 740.988C1207.86 749.695 1209.35 787.818 1207.49 794.02C1207.24 794.836 1206.04 796.186 1205.53 796.949C1171.96 795.907 1138.06 796.882 1104.45 796.895C1104.64 795.5 1104.49 794.186 1104.04 792.85C1096.19 769.466 1087.15 746.33 1078.7 723.143L1029.13 587.06C998.923 504.162 970.002 420.512 938.212 338.222C937.083 357.122 937.754 376.341 937.756 395.277L937.755 493.628L937.829 796.906L829.162 796.884L829.111 366.023C829.111 257.441 827.912 148.711 829.301 40.1454C864.027 39.2463 898.956 40.0003 933.704 39.9793L1042.01 341.693L1077.55 440.596C1083.66 457.597 1090.58 474.643 1095.83 491.911C1096.58 494.379 1096.67 496.385 1096.08 498.901C1097.19 497.187 1098.77 495.06 1099.11 493.027C1100.61 484.311 1099.29 473.251 1099.29 464.307L1099.29 394.888L1099.28 143.592C1099.28 131.565 1100.89 45.3453 1097.64 40.1095Z"/>
	<path fill="#2D0000" d="M520.868 40.1025C551.035 39.3284 581.39 40.0009 611.578 39.9754C617.765 71.0628 625.394 102.034 632.305 132.982L673.464 317.31L780.665 796.889L671.656 796.889C667.957 773.553 662.713 750.25 658.163 727.049C652.103 696.141 646.465 665.068 639.778 634.294L609.844 634.209L492.422 634.169C480.347 687.946 470.965 742.755 460.563 796.905L351.896 796.87C369.642 710.071 390.473 623.64 409.788 537.161L520.868 40.1025ZM511.296 532.114L567.656 532.078L619.628 532.078L582.241 338.612L571.546 283.421C570.108 276.005 569.332 266.702 566.805 259.7C566.433 258.669 565.836 258.072 564.974 257.418C559.199 282.419 554.935 307.897 550.055 333.096L523.385 470.83C519.434 491.231 515.962 511.866 511.296 532.114Z"/>
	<path fill="#2D0000" d="M1447.58 40.7785C1458.79 38.4725 1472.83 39.9538 1484.39 39.9663L1556.45 39.9827C1557.76 42.1636 1557.63 44.0444 1557.68 46.5193C1558.44 81.1019 1557.73 115.838 1557.74 150.44L1557.76 355.968L1557.75 530.496C1557.74 562.544 1558.46 594.775 1557.45 626.805Q1557.19 636.449 1556 646.023Q1554.8 655.597 1552.69 665.01Q1552.22 667.125 1551.7 669.228Q1551.19 671.331 1550.61 673.421Q1550.04 675.51 1549.42 677.585Q1548.8 679.66 1548.13 681.719Q1547.45 683.778 1546.73 685.819Q1546 687.861 1545.23 689.884Q1544.46 691.907 1543.63 693.91Q1542.81 695.913 1541.93 697.896Q1541.06 699.878 1540.14 701.838Q1539.22 703.798 1538.24 705.734Q1537.27 707.671 1536.26 709.583Q1535.24 711.495 1534.17 713.381Q1533.11 715.268 1532 717.127Q1530.89 718.986 1529.73 720.818Q1528.57 722.649 1527.37 724.451Q1526.17 726.253 1524.92 728.025Q1523.68 729.797 1522.39 731.537Q1521.1 733.278 1519.76 734.986Q1518.43 736.694 1517.06 738.369Q1515.68 740.043 1514.27 741.683Q1512.85 743.324 1511.4 744.928Q1509.94 746.533 1508.45 748.101Q1506.96 749.669 1505.42 751.2Q1503.89 752.731 1502.32 754.223Q1500.75 755.715 1499.14 757.168Q1497.54 758.622 1495.9 760.034Q1494.25 761.447 1492.58 762.819Q1490.9 764.191 1489.19 765.521Q1487.48 766.851 1485.74 768.138Q1484 769.426 1482.22 770.669Q1480.45 771.913 1478.65 773.113Q1476.84 774.312 1475.01 775.467C1427.57 805.358 1373.03 808.456 1319.43 796.404C1315.04 793.774 1308.88 792.161 1304.09 790.034C1293.5 785.332 1283.65 779.386 1274.23 772.649Q1260.68 762.852 1248.19 751.746C1242.24 746.406 1236.3 739.267 1229.48 735.206C1234.57 732.926 1312.04 671.764 1314.87 667.08C1318.48 668.749 1321.77 671.972 1324.96 674.387C1335.35 682.254 1345.8 689.382 1358.65 692.556Q1360.34 692.962 1362.05 693.285Q1363.76 693.608 1365.48 693.847Q1367.2 694.087 1368.93 694.242Q1370.66 694.397 1372.4 694.468Q1374.14 694.539 1375.88 694.525Q1377.61 694.511 1379.35 694.413Q1381.09 694.314 1382.81 694.131Q1384.54 693.948 1386.26 693.681Q1387.98 693.415 1389.68 693.064Q1391.39 692.714 1393.07 692.281Q1394.75 691.849 1396.41 691.334Q1398.07 690.82 1399.71 690.225Q1401.34 689.631 1402.94 688.958Q1404.55 688.284 1406.11 687.534Q1407.68 686.783 1409.21 685.957Q1410.74 685.131 1412.23 684.231C1429.65 673.538 1440.86 656.347 1445.59 636.681C1451.97 610.161 1449.2 579.576 1449.19 552.318L1449.15 440.245L1449.17 184.475C1449.2 139.693 1449.87 94.798 1449.18 50.0269C1449.13 46.7417 1449.36 43.6932 1447.58 40.7785Z"/>
</svg>
